<mxfile host="app.diagrams.net" modified="2023-04-06T08:31:01.801Z" agent="Mozilla/5.0 (Windows NT 10.0; Win64; x64) AppleWebKit/537.36 (KHTML, like Gecko) Chrome/112.0.0.0 Safari/537.36" version="21.1.4" etag="2ywbh_hIbALGEiCfLWYm" type="github">
  <diagram name="Trang-1" id="aTpf9x96zybntO28f7Um">
    <mxGraphModel>
      <root>
        <mxCell id="0" />
        <mxCell id="1" parent="0" />
      </root>
    </mxGraphModel>
  </diagram>
</mxfile>
